<svg xmlns="http://www.w3.org/2000/svg" xmlns:xlink="http://www.w3.org/1999/xlink" width="500" zoomAndPan="magnify" viewBox="0 0 375 374.999991" height="500" preserveAspectRatio="xMidYMid meet" version="1.0"><path fill="#0496ff" d="M 88.296875 222.015625 C 88.296875 222.015625 101.621094 235.339844 101.621094 235.339844 C 101.621094 235.339844 108.691406 228.265625 108.691406 228.265625 C 110.261719 229.078125 111.890625 229.75 113.554688 230.277344 C 113.554688 230.277344 113.554688 240.28125 113.554688 240.28125 C 113.554688 240.28125 132.394531 240.28125 132.394531 240.28125 C 132.394531 240.28125 132.394531 230.277344 132.394531 230.277344 C 134.058594 229.753906 135.6875 229.082031 137.257812 228.265625 C 137.257812 228.265625 144.332031 235.339844 144.332031 235.339844 C 144.332031 235.339844 157.652344 222.015625 157.652344 222.015625 C 157.652344 222.015625 150.582031 214.945312 150.582031 214.945312 C 151.398438 213.371094 152.066406 211.742188 152.59375 210.078125 C 152.59375 210.078125 162.597656 210.078125 162.597656 210.078125 C 162.597656 210.078125 162.597656 191.238281 162.597656 191.238281 C 162.597656 191.238281 152.589844 191.238281 152.589844 191.238281 C 152.066406 189.574219 151.394531 187.949219 150.582031 186.378906 C 150.582031 186.378906 157.652344 179.304688 157.652344 179.304688 C 157.652344 179.304688 144.328125 165.980469 144.328125 165.980469 C 144.328125 165.980469 137.257812 173.054688 137.257812 173.054688 C 135.6875 172.238281 134.0625 171.566406 132.398438 171.042969 C 132.398438 171.042969 132.398438 161.035156 132.398438 161.035156 C 132.398438 161.035156 113.554688 161.035156 113.554688 161.035156 C 113.554688 161.035156 113.554688 171.042969 113.554688 171.042969 C 111.890625 171.566406 110.261719 172.238281 108.691406 173.054688 C 108.691406 173.054688 101.617188 165.980469 101.617188 165.980469 C 101.617188 165.980469 88.296875 179.300781 88.296875 179.300781 C 88.296875 179.300781 95.367188 186.375 95.367188 186.375 C 94.550781 187.949219 93.882812 189.574219 93.359375 191.238281 C 93.359375 191.238281 83.351562 191.238281 83.351562 191.238281 C 83.351562 191.238281 83.351562 210.082031 83.351562 210.082031 C 83.351562 210.082031 93.359375 210.082031 93.359375 210.082031 C 93.882812 211.746094 94.554688 213.371094 95.367188 214.941406 C 95.367188 214.941406 88.296875 222.015625 88.296875 222.015625 Z M 112.5 210.082031 C 110.269531 207.601562 109.074219 204.527344 108.90625 201.402344 C 108.882812 200.90625 108.882812 200.410156 108.90625 199.914062 C 109.074219 196.789062 110.273438 193.714844 112.503906 191.238281 C 112.671875 191.054688 112.839844 190.875 113.015625 190.699219 C 113.191406 190.523438 113.371094 190.355469 113.554688 190.1875 C 116.027344 187.957031 119.105469 186.757812 122.230469 186.59375 C 122.726562 186.566406 123.222656 186.566406 123.71875 186.59375 C 126.839844 186.757812 129.917969 187.953125 132.398438 190.1875 C 132.578125 190.351562 132.757812 190.519531 132.933594 190.699219 C 133.109375 190.875 133.28125 191.054688 133.449219 191.238281 C 135.679688 193.714844 136.875 196.792969 137.042969 199.917969 C 137.066406 200.414062 137.066406 200.910156 137.042969 201.40625 C 136.875 204.527344 135.675781 207.605469 133.445312 210.082031 C 133.28125 210.261719 133.109375 210.441406 132.933594 210.617188 C 132.757812 210.792969 132.578125 210.964844 132.398438 211.128906 C 129.921875 213.359375 126.84375 214.5625 123.71875 214.726562 C 123.222656 214.753906 122.726562 214.753906 122.230469 214.726562 C 119.109375 214.5625 116.03125 213.367188 113.554688 211.132812 C 113.367188 210.964844 113.1875 210.796875 113.011719 210.617188 C 112.835938 210.441406 112.667969 210.261719 112.5 210.082031 Z M 112.5 210.082031 " fill-opacity="1" fill-rule="nonzero"/><path fill="#0496ff" d="M 304.742188 169.363281 C 304.742188 169.363281 305.992188 145.140625 305.992188 145.140625 C 305.992188 145.140625 293.132812 144.476562 293.132812 144.476562 C 292.554688 142.273438 291.792969 140.140625 290.863281 138.097656 C 290.863281 138.097656 300.425781 129.46875 300.425781 129.46875 C 300.425781 129.46875 284.179688 111.457031 284.179688 111.457031 C 284.179688 111.457031 274.617188 120.085938 274.617188 120.085938 C 272.679688 118.945312 270.636719 117.96875 268.5 117.167969 C 268.5 117.167969 269.160156 104.308594 269.160156 104.308594 C 269.160156 104.308594 244.941406 103.0625 244.941406 103.0625 C 244.941406 103.0625 244.277344 115.921875 244.277344 115.921875 C 242.070312 116.496094 239.9375 117.257812 237.894531 118.195312 C 237.894531 118.195312 229.265625 108.628906 229.265625 108.628906 C 229.265625 108.628906 211.253906 124.875 211.253906 124.875 C 211.253906 124.875 219.882812 134.441406 219.882812 134.441406 C 218.746094 136.378906 217.769531 138.421875 216.96875 140.554688 C 216.96875 140.554688 204.109375 139.890625 204.109375 139.890625 C 204.109375 139.890625 202.863281 164.117188 202.863281 164.117188 C 202.863281 164.117188 215.722656 164.777344 215.722656 164.777344 C 216.296875 166.980469 217.054688 169.113281 217.988281 171.160156 C 217.988281 171.160156 208.425781 179.785156 208.425781 179.785156 C 208.425781 179.785156 224.671875 197.796875 224.671875 197.796875 C 224.671875 197.796875 234.238281 189.167969 234.238281 189.167969 C 236.171875 190.308594 238.21875 191.285156 240.355469 192.085938 C 240.355469 192.085938 239.691406 204.945312 239.691406 204.945312 C 239.691406 204.945312 263.914062 206.195312 263.914062 206.195312 C 263.914062 206.195312 264.574219 193.335938 264.574219 193.335938 C 266.78125 192.757812 268.914062 191.996094 270.960938 191.0625 C 270.960938 191.0625 279.585938 200.628906 279.585938 200.628906 C 279.585938 200.628906 297.597656 184.378906 297.597656 184.378906 C 297.597656 184.378906 288.972656 174.816406 288.972656 174.816406 C 290.109375 172.878906 291.082031 170.835938 291.882812 168.703125 C 291.882812 168.703125 304.742188 169.363281 304.742188 169.363281 Z M 272.464844 156.515625 C 272.019531 160.785156 270.109375 164.582031 267.265625 167.433594 C 266.8125 167.886719 266.339844 168.316406 265.84375 168.71875 C 262.714844 171.253906 258.738281 172.757812 254.449219 172.761719 C 254.132812 172.757812 253.8125 172.753906 253.492188 172.734375 C 253.171875 172.71875 252.855469 172.695312 252.542969 172.664062 C 248.273438 172.21875 244.472656 170.3125 241.621094 167.46875 C 241.167969 167.019531 240.742188 166.542969 240.339844 166.046875 C 237.804688 162.917969 236.292969 158.945312 236.289062 154.652344 C 236.292969 154.335938 236.300781 154.019531 236.316406 153.695312 C 236.332031 153.375 236.359375 153.0625 236.386719 152.742188 C 236.832031 148.46875 238.742188 144.671875 241.585938 141.820312 C 242.039062 141.367188 242.511719 140.941406 243.007812 140.539062 C 246.136719 138.003906 250.113281 136.496094 254.402344 136.492188 C 254.722656 136.496094 255.039062 136.503906 255.359375 136.519531 C 255.679688 136.535156 255.996094 136.5625 256.3125 136.59375 C 260.578125 137.035156 264.378906 138.941406 267.230469 141.785156 C 267.683594 142.238281 268.109375 142.710938 268.515625 143.207031 C 271.046875 146.335938 272.558594 150.308594 272.5625 154.605469 C 272.558594 154.925781 272.554688 155.242188 272.535156 155.5625 C 272.519531 155.882812 272.496094 156.199219 272.464844 156.515625 Z M 272.464844 156.515625 " fill-opacity="1" fill-rule="nonzero"/><path fill="#141937" d="M 263.105469 204.894531 C 265.730469 208.707031 267.132812 212.5625 267.257812 216.449219 C 267.257812 216.449219 244.550781 226.039062 244.550781 226.039062 C 242.148438 222.320312 242.3125 218.640625 245.667969 215.019531 C 245.667969 215.019531 263.105469 204.894531 263.105469 204.894531 Z M 263.105469 204.894531 " fill-opacity="1" fill-rule="nonzero"/><path fill="#0496ff" d="M 265.847656 204.453125 C 265.933594 204.785156 265.796875 205.132812 265.511719 205.316406 C 265.511719 205.316406 261.902344 207.597656 261.902344 207.597656 C 261.902344 207.597656 242.601562 219.804688 242.601562 219.804688 C 231.714844 200.597656 226.75 182.390625 239.730469 175.234375 C 240.671875 174.714844 241.707031 174.253906 242.84375 173.851562 C 255.1875 174.210938 261.34375 187.59375 265.847656 204.453125 Z M 265.847656 204.453125 " fill-opacity="1" fill-rule="nonzero"/><path fill="#d3ecfd" d="M 265.484375 205.332031 C 265.484375 205.332031 261.902344 207.597656 261.902344 207.597656 C 258.308594 192.078125 251.433594 180.640625 239.730469 175.234375 C 240.671875 174.714844 241.707031 174.253906 242.84375 173.851562 C 255.179688 174.210938 261.335938 187.574219 265.839844 204.425781 C 265.929688 204.769531 265.785156 205.140625 265.484375 205.332031 Z M 265.484375 205.332031 " fill-opacity="1" fill-rule="nonzero"/><path fill="#0496ff" d="M 277.105469 253.1875 C 276.9375 254.492188 275.988281 255.558594 274.71875 255.914062 C 272.4375 256.550781 270.101562 257.027344 267.707031 257.347656 C 261.9375 258.128906 255.839844 258.015625 249.445312 257.09375 C 248.957031 257.023438 248.507812 256.769531 248.195312 256.382812 C 241.59375 248.183594 237.71875 238.433594 241.957031 224.0625 C 242.867188 225.167969 253.3125 221.3125 260.730469 217.824219 C 264.082031 216.246094 266.8125 214.746094 267.769531 213.8125 C 268.015625 213.574219 268.414062 213.621094 268.589844 213.914062 C 277.050781 228.355469 278.617188 241.140625 277.105469 253.1875 Z M 277.105469 253.1875 " fill-opacity="1" fill-rule="nonzero"/><path fill="#d3ecfd" d="M 274.71875 255.914062 C 272.441406 256.546875 270.101562 257.027344 267.707031 257.347656 C 269.117188 243.058594 267.488281 229.675781 260.730469 217.824219 C 264.089844 216.242188 266.824219 214.738281 267.777344 213.804688 C 268.015625 213.570312 268.414062 213.617188 268.582031 213.90625 C 277.050781 228.347656 278.617188 241.136719 277.105469 253.1875 C 276.941406 254.492188 275.988281 255.558594 274.71875 255.914062 Z M 274.71875 255.914062 " fill-opacity="1" fill-rule="nonzero"/><path fill="#141937" d="M 251.4375 260.121094 C 259.691406 259.882812 267.195312 260.515625 272.382812 263.863281 C 273.097656 264.324219 273.535156 265.109375 273.53125 265.957031 C 273.46875 276.996094 267.746094 281.871094 259.195312 283.664062 C 256.003906 283.46875 254.8125 281.914062 256.273438 278.5625 C 251.199219 279.066406 249.519531 276.484375 251.3125 270.75 C 248.417969 271.566406 246.824219 270.941406 247.097656 268.230469 C 247.210938 267.121094 247.632812 266.066406 248.265625 265.148438 C 248.96875 264.125 249.441406 262.996094 249.632812 261.738281 C 249.773438 260.832031 250.523438 260.148438 251.4375 260.121094 Z M 251.4375 260.121094 " fill-opacity="1" fill-rule="nonzero"/><path fill="#141937" d="M 124.632812 294.496094 C 128.191406 297.457031 131.898438 299.207031 135.761719 299.6875 C 135.761719 299.6875 147.382812 277.949219 147.382812 277.949219 C 143.898438 275.21875 140.21875 275.042969 136.304688 278.058594 C 136.304688 278.058594 124.632812 294.496094 124.632812 294.496094 Z M 124.632812 294.496094 " fill-opacity="1" fill-rule="nonzero"/><path fill="#0496ff" d="M 123.945312 297.1875 C 124.265625 297.304688 124.625 297.199219 124.832031 296.929688 C 124.832031 296.929688 127.4375 293.542969 127.4375 293.542969 C 127.4375 293.542969 141.351562 275.441406 141.351562 275.441406 C 123.222656 262.84375 105.542969 256.238281 97.230469 268.511719 C 96.628906 269.402344 96.074219 270.390625 95.570312 271.484375 C 94.800781 283.808594 107.5625 291.160156 123.945312 297.1875 Z M 123.945312 297.1875 " fill-opacity="1" fill-rule="nonzero"/><path fill="#d3ecfd" d="M 124.851562 296.90625 C 124.851562 296.90625 127.4375 293.542969 127.4375 293.542969 C 112.308594 288.546875 101.546875 280.660156 97.230469 268.511719 C 96.628906 269.402344 96.074219 270.390625 95.570312 271.484375 C 94.800781 283.800781 107.546875 291.152344 123.914062 297.175781 C 124.25 297.300781 124.632812 297.1875 124.851562 296.90625 Z M 124.851562 296.90625 " fill-opacity="1" fill-rule="nonzero"/><path fill="#0496ff" d="M 171.445312 312.84375 C 172.761719 312.800781 173.910156 311.949219 174.378906 310.71875 C 175.21875 308.507812 175.910156 306.222656 176.449219 303.867188 C 177.753906 298.195312 178.195312 292.109375 177.863281 285.660156 C 177.835938 285.167969 177.625 284.695312 177.269531 284.351562 C 169.703125 277.023438 160.347656 272.277344 145.652344 275.1875 C 146.667969 276.195312 141.875 286.246094 137.722656 293.3125 C 135.847656 296.503906 134.101562 299.089844 133.085938 299.957031 C 132.828125 300.175781 132.839844 300.582031 133.117188 300.78125 C 146.722656 310.527344 159.3125 313.253906 171.445312 312.84375 Z M 171.445312 312.84375 " fill-opacity="1" fill-rule="nonzero"/><path fill="#d3ecfd" d="M 174.378906 310.71875 C 175.21875 308.507812 175.910156 306.222656 176.449219 303.867188 C 162.089844 303.96875 148.910156 301.125 137.726562 293.3125 C 135.84375 296.511719 134.09375 299.101562 133.078125 299.960938 C 132.824219 300.179688 132.835938 300.578125 133.109375 300.773438 C 146.714844 310.523438 159.308594 313.253906 171.445312 312.84375 C 172.761719 312.800781 173.910156 311.949219 174.378906 310.71875 Z M 174.378906 310.71875 " fill-opacity="1" fill-rule="nonzero"/><path fill="#141937" d="M 180.691406 287.917969 C 179.703125 296.113281 179.648438 303.648438 182.507812 309.121094 C 182.902344 309.871094 183.644531 310.378906 184.488281 310.453125 C 195.488281 311.398438 200.863281 306.144531 203.433594 297.792969 C 203.527344 294.597656 202.089844 293.269531 198.617188 294.417969 C 199.582031 289.410156 197.164062 287.503906 191.289062 288.765625 C 192.367188 285.960938 191.890625 284.3125 189.167969 284.339844 C 188.050781 284.347656 186.960938 284.671875 185.988281 285.21875 C 184.90625 285.824219 183.738281 286.195312 182.46875 286.269531 C 181.554688 286.324219 180.804688 287.011719 180.691406 287.917969 Z M 180.691406 287.917969 " fill-opacity="1" fill-rule="nonzero"/><path fill="#d3ecfd" d="M 201.460938 268.230469 C 193.128906 270.660156 184.390625 271.433594 175.796875 270.238281 C 142.609375 265.601562 126.316406 237.898438 123.378906 191.953125 C 123.378906 191.953125 129.667969 191.023438 129.667969 191.023438 C 129.667969 191.023438 238.84375 174.894531 238.84375 174.894531 C 238.84375 174.894531 245.523438 173.910156 245.523438 173.910156 C 256.691406 222.199219 244.925781 255.542969 201.460938 268.230469 Z M 201.460938 268.230469 " fill-opacity="1" fill-rule="nonzero"/><path fill="#0496ff" d="M 199.03125 257.972656 C 191.617188 260.183594 183.832031 260.886719 176.179688 259.796875 C 147.1875 255.667969 132.675781 231.363281 129.667969 191.023438 C 129.667969 191.023438 238.84375 174.894531 238.84375 174.894531 C 247.78125 217.355469 236.964844 246.675781 199.03125 257.972656 Z M 199.03125 257.972656 " fill-opacity="1" fill-rule="nonzero"/><path fill="#141937" d="M 223.90625 204.835938 C 227.097656 204.675781 230.667969 203.910156 234.496094 202.730469 C 235.5 202.421875 236.523438 203.175781 236.53125 204.226562 C 236.589844 211.929688 235.503906 218.757812 233.175781 224.628906 C 232.886719 225.359375 232.324219 225.949219 231.601562 226.253906 C 226.472656 228.433594 222.394531 228.441406 219.074219 226.878906 C 218.445312 226.585938 218.09375 225.910156 218.226562 225.230469 C 218.226562 225.230469 221.917969 206.558594 221.917969 206.558594 C 222.109375 205.597656 222.925781 204.882812 223.90625 204.835938 Z M 223.90625 204.835938 " fill-opacity="1" fill-rule="nonzero"/><path fill="#0496ff" d="M 224.101562 208.628906 C 224.101562 208.628906 223.078125 212.546875 223.078125 212.546875 C 223.007812 212.808594 223.222656 213.0625 223.492188 213.039062 C 223.492188 213.039062 233.527344 212.199219 233.527344 212.199219 C 233.707031 212.183594 233.851562 212.046875 233.882812 211.867188 C 233.882812 211.867188 234.53125 207.785156 234.53125 207.785156 C 234.570312 207.527344 234.359375 207.304688 234.101562 207.328125 C 234.101562 207.328125 224.441406 208.335938 224.441406 208.335938 C 224.28125 208.351562 224.144531 208.46875 224.101562 208.628906 Z M 224.101562 208.628906 " fill-opacity="1" fill-rule="nonzero"/><path fill="#0496ff" d="M 223.277344 215.261719 C 223.277344 215.261719 232.125 214.644531 232.125 214.644531 C 232.699219 214.605469 233.140625 215.140625 232.996094 215.695312 C 232.996094 215.695312 232.421875 217.878906 232.421875 217.878906 C 232.332031 218.230469 232.023438 218.484375 231.664062 218.503906 C 231.664062 218.503906 223.015625 219.023438 223.015625 219.023438 C 222.460938 219.054688 222.027344 218.550781 222.144531 218.007812 C 222.144531 218.007812 222.621094 215.832031 222.621094 215.832031 C 222.6875 215.515625 222.957031 215.285156 223.277344 215.261719 Z M 223.277344 215.261719 " fill-opacity="1" fill-rule="nonzero"/><path fill="#0496ff" d="M 222.558594 221.546875 C 222.558594 221.546875 231.132812 220.894531 231.132812 220.894531 C 231.523438 220.867188 231.828125 221.226562 231.734375 221.605469 C 231.734375 221.605469 231.089844 224.199219 231.089844 224.199219 C 231.027344 224.449219 230.804688 224.628906 230.546875 224.632812 C 230.546875 224.632812 221.847656 224.820312 221.847656 224.820312 C 221.445312 224.828125 221.160156 224.429688 221.296875 224.050781 C 221.296875 224.050781 222.058594 221.925781 222.058594 221.925781 C 222.136719 221.710938 222.332031 221.5625 222.558594 221.546875 Z M 222.558594 221.546875 " fill-opacity="1" fill-rule="nonzero"/><path fill="#141937" d="M 123.378906 191.957031 C 143.175781 207.039062 242.335938 192.539062 245.523438 173.910156 C 232.476562 153.464844 123.421875 169.386719 123.378906 191.957031 Z M 123.378906 191.957031 " fill-opacity="1" fill-rule="nonzero"/><path fill="#141937" d="M 194.6875 73.660156 C 193.640625 83.492188 190.730469 90.460938 186.921875 96.054688 C 186.921875 96.054688 198.871094 96.871094 198.871094 96.871094 C 195.214844 90.277344 195.367188 82.699219 198.46875 74.367188 C 198.46875 74.367188 194.6875 73.660156 194.6875 73.660156 Z M 194.6875 73.660156 " fill-opacity="1" fill-rule="nonzero"/><path fill="#0496ff" d="M 204.644531 104.402344 C 204.644531 104.402344 198.21875 103.742188 198.21875 103.742188 C 198.21875 103.742188 177.632812 101.636719 177.632812 101.636719 C 179.566406 97.273438 183.574219 94.386719 192.886719 95.273438 C 194.347656 95.457031 195.71875 95.660156 196.980469 95.90625 C 202.734375 97.011719 206.152344 99 204.644531 104.402344 Z M 204.644531 104.402344 " fill-opacity="1" fill-rule="nonzero"/><path fill="#d3ecfd" d="M 204.644531 104.402344 C 204.644531 104.402344 198.21875 103.742188 198.21875 103.742188 C 199.746094 101.699219 199.070312 99.003906 196.980469 95.90625 C 202.734375 97.011719 206.152344 99 204.644531 104.402344 Z M 204.644531 104.402344 " fill-opacity="1" fill-rule="nonzero"/><path fill="#0496ff" d="M 205.3125 70.335938 C 204.507812 74.609375 200.390625 77.425781 196.117188 76.625 C 191.839844 75.820312 189.023438 71.703125 189.828125 67.429688 C 190.628906 63.152344 194.746094 60.335938 199.023438 61.140625 C 203.296875 61.941406 206.113281 66.058594 205.3125 70.335938 Z M 205.3125 70.335938 " fill-opacity="1" fill-rule="nonzero"/><path fill="#0496ff" d="M 238.429688 169.1875 C 238.269531 170.410156 237.617188 171.515625 236.621094 172.234375 C 227.925781 178.535156 217.476562 182.949219 206.226562 185.328125 C 181.132812 190.644531 152.074219 185.835938 129.683594 169.292969 C 127.390625 167.59375 126.417969 164.636719 127.242188 161.90625 C 134.917969 136.535156 138.390625 108.371094 174.695312 102.070312 C 182.726562 100.675781 190.914062 100.902344 198.78125 102.730469 C 201.921875 103.453125 205.015625 104.433594 208.027344 105.667969 C 231.402344 115.25 242.945312 135.1875 238.429688 169.1875 Z M 238.429688 169.1875 " fill-opacity="1" fill-rule="nonzero"/><path fill="#d3ecfd" d="M 190.714844 197.394531 C 190.714844 197.394531 193.863281 196.339844 193.863281 196.339844 C 192.84375 196.773438 191.792969 197.125 190.714844 197.394531 Z M 190.714844 197.394531 " fill-opacity="1" fill-rule="nonzero"/><path fill="#d3ecfd" d="M 236.546875 172.289062 C 227.863281 178.5625 217.441406 182.957031 206.226562 185.328125 C 219.652344 164.882812 219.789062 124.714844 198.78125 102.730469 C 201.921875 103.453125 205.015625 104.433594 208.027344 105.667969 C 231.382812 115.242188 242.925781 135.152344 238.441406 169.097656 C 238.273438 170.375 237.59375 171.535156 236.546875 172.289062 Z M 236.546875 172.289062 " fill-opacity="1" fill-rule="nonzero"/><path fill="#141937" d="M 192.203125 114.398438 C 162 110.625 149.234375 126.742188 142.125 149.320312 C 137.046875 168.695312 155.507812 177.378906 176.367188 172.34375 C 182.214844 170.929688 188.351562 171.074219 194.039062 173.035156 C 211.191406 178.957031 226.277344 175.394531 225.882812 155.429688 C 227.785156 130.226562 213.46875 119.261719 192.203125 114.398438 Z M 192.203125 114.398438 " fill-opacity="1" fill-rule="nonzero"/><path fill="#0496ff" d="M 108.980469 97.195312 C 108.980469 97.195312 102.9375 105.304688 102.9375 105.304688 C 102.710938 105.609375 102.726562 106.027344 102.96875 106.3125 C 107.4375 111.5 112.332031 116.117188 117.71875 120.085938 C 118.058594 120.335938 118.542969 120.277344 118.8125 119.949219 C 118.8125 119.949219 121.21875 117.066406 121.21875 117.066406 C 121.527344 116.695312 122.09375 116.679688 122.425781 117.035156 C 122.425781 117.035156 128.753906 123.835938 128.753906 123.835938 C 129.347656 124.472656 130.390625 123.84375 130.101562 123.019531 C 130.101562 123.019531 123.023438 102.863281 123.023438 102.863281 C 122.8125 102.261719 122.015625 102.132812 121.625 102.636719 C 121.625 102.636719 117.675781 107.761719 117.675781 107.761719 C 117.328125 108.214844 116.632812 108.167969 116.34375 107.671875 C 116.34375 107.671875 110.320312 97.273438 110.320312 97.273438 C 110.03125 96.773438 109.324219 96.734375 108.980469 97.195312 Z M 108.980469 97.195312 " fill-opacity="1" fill-rule="nonzero"/><path fill="#0496ff" d="M 87.402344 130.269531 C 87.402344 130.269531 86.429688 140.332031 86.429688 140.332031 C 86.390625 140.707031 86.621094 141.0625 86.980469 141.179688 C 93.488281 143.304688 100.0625 144.71875 106.722656 145.324219 C 107.148438 145.363281 107.53125 145.0625 107.59375 144.640625 C 107.59375 144.640625 108.160156 140.933594 108.160156 140.933594 C 108.230469 140.457031 108.710938 140.148438 109.175781 140.28125 C 109.175781 140.28125 118.097656 142.816406 118.097656 142.816406 C 118.9375 143.054688 119.503906 141.972656 118.828125 141.417969 C 118.828125 141.417969 102.351562 127.847656 102.351562 127.847656 C 101.855469 127.441406 101.109375 127.746094 101.035156 128.378906 C 101.035156 128.378906 100.3125 134.796875 100.3125 134.796875 C 100.246094 135.367188 99.625 135.691406 99.121094 135.414062 C 99.121094 135.414062 88.589844 129.640625 88.589844 129.640625 C 88.082031 129.363281 87.457031 129.695312 87.402344 130.269531 Z M 87.402344 130.269531 " fill-opacity="1" fill-rule="nonzero"/><path fill="#0496ff" d="M 233.328125 73.671875 C 233.328125 73.671875 224.488281 67.382812 224.488281 67.382812 C 224.304688 67.25 224.050781 67.261719 223.878906 67.414062 C 218.640625 72.109375 214.007812 77.242188 210.074219 82.875 C 209.925781 83.085938 209.96875 83.375 210.171875 83.535156 C 210.171875 83.535156 213.617188 86.289062 213.617188 86.289062 C 213.847656 86.46875 213.867188 86.8125 213.65625 87.019531 C 213.65625 87.019531 205.652344 94.800781 205.652344 94.800781 C 205.273438 95.171875 205.667969 95.792969 206.164062 95.609375 C 206.164062 95.609375 228.125 87.351562 228.125 87.351562 C 228.488281 87.214844 228.554688 86.730469 228.242188 86.5 C 228.242188 86.5 222.1875 82.039062 222.1875 82.039062 C 221.90625 81.835938 221.925781 81.410156 222.222656 81.230469 C 222.222656 81.230469 233.300781 74.484375 233.300781 74.484375 C 233.597656 74.304688 233.613281 73.875 233.328125 73.671875 Z M 233.328125 73.671875 " fill-opacity="1" fill-rule="nonzero"/></svg>