<svg width="1256" height="256" viewBox="0 0 1256 256" fill="none" xmlns="http://www.w3.org/2000/svg">
<path d="M572.375 94H522.5C522.333 88.1667 520.167 83.9583 516 81.375C511.917 78.7083 505.25 77.375 496 77.375H483.5C472.083 77.375 464.542 79.4583 460.875 83.625C457.208 87.7917 455.375 97.8333 455.375 113.75V144.375C455.375 160.125 457.208 170.083 460.875 174.25C464.542 178.417 472.083 180.5 483.5 180.5H497.375C507.208 180.5 514.042 179.125 517.875 176.375C521.792 173.625 523.75 168.875 523.75 162.125V154.875H495.25V120.125H572.375V151.875C572.375 177.042 566.833 195.417 555.75 207C544.75 218.5 527.333 224.25 503.5 224.25H469.625C448.625 224.25 432.708 217.625 421.875 204.375C411.042 191.042 405.625 171.417 405.625 145.5V117.25C405.625 88.25 411.333 67.0833 422.75 53.75C434.167 40.3333 452.208 33.625 476.875 33.625H504C524 33.625 540.375 38.625 553.125 48.625C565.958 58.5417 572.375 71.0417 572.375 86.125V94ZM718.5 181.75C717.5 196.667 712.958 207.417 704.875 214C696.792 220.5 684.083 223.75 666.75 223.75H649.125C629.875 223.75 616.333 219.75 608.5 211.75C600.75 203.75 596.875 189.75 596.875 169.75V142.625C596.875 122.708 600.75 108.75 608.5 100.75C616.333 92.6667 629.875 88.625 649.125 88.625H666.75C686 88.625 699.5 92.6667 707.25 100.75C715.083 108.75 719 122.708 719 142.625V163.375H638.875V179.5C638.875 185.417 640.083 189.583 642.5 192C645 194.417 649.333 195.625 655.5 195.625H660.875C666.625 195.625 670.667 194.625 673 192.625C675.333 190.625 676.75 187 677.25 181.75H718.5ZM638.875 141.375H678V136.75C678 128 676.833 122.208 674.5 119.375C672.25 116.458 667.792 115 661.125 115H655.75C649.25 115 644.792 116.417 642.375 119.25C640.042 122 638.875 127.417 638.875 135.5V141.375ZM749 222V90.375H789.5L789 109.125C792.75 101.875 797.542 96.6667 803.375 93.5C809.292 90.25 817.042 88.625 826.625 88.625C842.292 88.625 853.125 92 859.125 98.75C865.125 105.417 868.125 118 868.125 136.5V222H826.375V145.75C826.375 136.167 825.25 129.958 823 127.125C820.833 124.292 815.708 122.875 807.625 122.875C801.208 122.875 796.792 124.458 794.375 127.625C791.958 130.708 790.75 137.583 790.75 148.25V222H749ZM902 68.625V35.875H944.5V68.625H902ZM902 222V90.375H944.5V222H902ZM1099.88 90.375V222H1059.38L1059.88 203.25C1056.21 210.5 1051.46 215.75 1045.62 219C1039.79 222.167 1032.17 223.75 1022.75 223.75C1006.83 223.75 995.833 220.458 989.75 213.875C983.75 207.208 980.75 194.625 980.75 176.125V90.375H1022.5V166.75C1022.5 176.333 1023.62 182.542 1025.88 185.375C1028.12 188.125 1033.25 189.5 1041.25 189.5C1047.75 189.5 1052.17 188 1054.5 185C1056.92 181.917 1058.12 175.042 1058.12 164.375V90.375H1099.88ZM1127.62 184.375H1170.88C1171.62 189.208 1173.17 192.542 1175.5 194.375C1177.92 196.208 1182.17 197.125 1188.25 197.125H1193.88C1200.46 197.125 1204.96 196.208 1207.38 194.375C1209.88 192.542 1211.12 189.208 1211.12 184.375C1211.12 179.792 1209.96 176.625 1207.62 174.875C1205.38 173.042 1200.62 171.75 1193.38 171L1166.5 168.5C1155.08 167.417 1146 163.792 1139.25 157.625C1132.5 151.375 1129.12 143.667 1129.12 134.5V124C1129.12 112.417 1133.29 103.625 1141.62 97.625C1150.04 91.625 1162.25 88.625 1178.25 88.625H1204.12C1219.04 88.625 1230.25 91.5 1237.75 97.25C1245.25 102.917 1249 111.458 1249 122.875V125.75H1207.5C1207.33 122.083 1205.96 119.375 1203.38 117.625C1200.88 115.875 1196.96 115 1191.62 115H1186.25C1180.5 115 1176.42 115.958 1174 117.875C1171.58 119.792 1170.38 123 1170.38 127.5C1170.38 131.25 1171.25 133.917 1173 135.5C1174.75 137.083 1177.96 138.083 1182.62 138.5L1212.38 141.375C1226.12 142.625 1236.29 145.875 1242.88 151.125C1249.46 156.375 1252.75 163.792 1252.75 173.375V184.625C1252.75 196.792 1248.58 206.375 1240.25 213.375C1231.92 220.292 1220.42 223.75 1205.75 223.75H1177.75C1160.83 223.75 1148.25 220.667 1140 214.5C1131.75 208.333 1127.62 198.875 1127.62 186.125V184.375Z" fill="#0496FF"/>
<path d="M224.419 35.0113L107.66 151.287L38.614 82.5282C36.8821 80.8035 34.0705 80.8035 32.333 82.5282L1.29894 113.433C-0.43298 115.163 -0.43298 117.961 1.29894 119.691L104.517 222.478C106.255 224.202 109.066 224.202 110.798 222.478L261.734 72.1742C263.471 70.4439 263.471 67.6461 261.734 65.9158L230.7 35.0113C228.968 33.2866 226.156 33.2866 224.419 35.0113Z" fill="#0496FF"/>
<path d="M211.879 222.978L179.845 191.073C178.383 189.624 178.383 187.264 179.845 185.815L331.781 34.5171C333.238 33.062 335.605 33.062 337.061 34.5171L369.096 66.4159C370.553 67.871 370.553 70.2249 369.096 71.6744L217.16 222.978C215.703 224.427 213.336 224.427 211.879 222.978Z" fill="#0496FF"/>
</svg>
