<svg width="64" height="34" viewBox="0 0 64 34" fill="none" xmlns="http://www.w3.org/2000/svg">
<path d="M38.837 0.34608L18.7169 20.3504L6.81862 8.52102C6.52017 8.2243 6.03567 8.2243 5.73626 8.52102L0.388388 13.8379C0.0899384 14.1356 0.0899384 14.617 0.388388 14.9146L18.1752 32.5983C18.4746 32.8951 18.9591 32.8951 19.2576 32.5983L45.2673 6.7397C45.5667 6.44201 45.5667 5.96067 45.2673 5.66298L39.9194 0.34608C39.6209 0.0493537 39.1364 0.0493537 38.837 0.34608Z" fill="#0496FF"/>
<path d="M36.6766 32.6843L31.1562 27.1954C30.9043 26.946 30.9043 26.5401 31.1562 26.2907L57.3384 0.260991C57.5894 0.0106591 57.9973 0.0106591 58.2483 0.260991L63.7686 5.74897C64.0196 5.9993 64.0196 6.40428 63.7686 6.65365L37.5865 32.6843C37.3355 32.9337 36.9276 32.9337 36.6766 32.6843Z" fill="#0496FF"/>
</svg>
